/* XPM */ 
static const char * texture_pack_xpm[] = {
"32 32 228 2",
"  	c None",
"! 	c black",
"# 	c #B4A1FF",
"$ 	c #6640FF",
"% 	c #5126FF",
"& 	c #5025FF",
"' 	c #5125FF",
"( 	c #5226FF",
") 	c #5C34FF",
"* 	c #B29FFF",
"+ 	c #5329FF",
", 	c #3F0FFF",
"- 	c #4415FF",
". 	c #4416FF",
"0 	c #4516FF",
"1 	c #3604FF",
"2 	c #3401FF",
"3 	c #3503FF",
"4 	c #5328FF",
"5 	c #B8A7FF",
"6 	c #552BFF",
"7 	c #8162FF",
"8 	c #D2C7FF",
"9 	c #D9D0FF",
": 	c #DAD1FF",
"; 	c #DAD0FF",
"< 	c #9D84FF",
"= 	c #4D21FF",
"> 	c #3806FF",
"? 	c #3300FF",
"@ 	c #491BFF",
"A 	c #BDADFF",
"B 	c #5A31FF",
"C 	c #4314FF",
"D 	c #7E5EFF",
"E 	c #DFD7FF",
"F 	c #C5B7FF",
"G 	c #653FFF",
"H 	c #4111FF",
"I 	c #5930FF",
"J 	c #3C0BFF",
"K 	c #491CFF",
"L 	c #AE9AFF",
"M 	c #4213FF",
"N 	c #7856FF",
"O 	c #DBD1FF",
"P 	c #CABDFF",
"Q 	c #6944FF",
"R 	c #4011FF",
"S 	c #6F4BFF",
"T 	c #BCABFF",
"U 	c #5024FF",
"V 	c #B09CFF",
"W 	c #552AFF",
"X 	c #7A59FF",
"Y 	c #D6CCFF",
"Z 	c #CEC2FF",
"[ 	c #4010FF",
"] 	c #6B46FF",
"^ 	c #CBBEFF",
"_ 	c #562BFF",
"` 	c #B6A3FF",
"a 	c #572EFF",
"b 	c #8364FF",
"c 	c #DBD2FF",
"d 	c #C0B1FF",
"e 	c #6C48FF",
"f 	c #6540FF",
"g 	c #C6B8FF",
"h 	c #BBAAFF",
"i 	c #7B5AFF",
"j 	c #D7CDFF",
"k 	c #BFB0FF",
"l 	c #6843FF",
"m 	c #C2B3FF",
"n 	c #562CFF",
"o 	c #643EFF",
"p 	c #3705FF",
"q 	c #5227FF",
"r 	c #714DFF",
"s 	c #7351FF",
"t 	c #7350FF",
"u 	c #582FFF",
"v 	c #3D0CFF",
"w 	c #7451FF",
"x 	c #C7B9FF",
"y 	c #4618FF",
"z 	c #3603FF",
"{ 	c #B19EFF",
"| 	c #471AFF",
"} 	c #A994FF",
"~ 	c #B3A0FF",
" !	c #5F37FF",
"!!	c #7958FF",
"#!	c #481BFF",
"$!	c #E6E2F7",
"%!	c #D3D3D3",
"&!	c #D1D1D1",
"'!	c #C3B3FF",
"(!	c #DBD6EB",
")!	c #9B9B9B",
"*!	c #A4A4A4",
"+!	c #5127FA",
",!	c #BAB6CB",
"-!	c #6A6A6A",
".!	c #7B7B7B",
"0!	c #D8D8D8",
"1!	c #C8C8C8",
"2!	c #C2C2C2",
"3!	c #C7C7C7",
"4!	c #E4E4E4",
"5!	c #7755FC",
"6!	c #4B21F4",
"7!	c #9C98AD",
"8!	c #494949",
"9!	c #565656",
":!	c #B4B4B4",
";!	c #999999",
"<!	c #737373",
"=!	c #686868",
">!	c #868686",
"?!	c #E1E1E1",
"@!	c #D0D0D0",
"A!	c #808080",
"B!	c #AEAEAE",
"C!	c #7C7C7C",
"D!	c #C6C5C8",
"E!	c #7655FC",
"F!	c #5026F9",
"G!	c #B5B1C5",
"H!	c #646464",
"I!	c #747474",
"J!	c #CBCBCB",
"K!	c #B2B2B2",
"L!	c #484848",
"M!	c #848484",
"N!	c #AFAFAF",
"O!	c #4E4E4E",
"P!	c #9D9D9D",
"Q!	c #E3E3E3",
"R!	c #666666",
"S!	c #A8A8A8",
"T!	c #787878",
"U!	c #DEDEE1",
"V!	c #D6D2E6",
"W!	c #898989",
"X!	c #9C9C9C",
"Y!	c #323232",
"Z!	c #595959",
"[!	c #ECECEC",
"]!	c #606060",
"^!	c #3B3B3B",
"_!	c #D6D2E7",
"`!	c #DADADA",
"a!	c #656565",
"b!	c #2F2F2F",
"c!	c #777777",
"d!	c #818181",
"e!	c #7D7D7D",
"f!	c #5B5B5B",
"g!	c #727272",
"h!	c #8E8E8E",
"i!	c #1A1A1A",
"j!	c #DCDCDC",
"k!	c #4C4C4C",
"l!	c #A7A7A7",
"m!	c #ABABAB",
"n!	c #A9A9A9",
"o!	c #969696",
"p!	c #ACACAC",
"q!	c #8D8D8D",
"r!	c #373737",
"s!	c #6C6C6C",
"t!	c #D9D9D9",
"u!	c #BFAFFF",
"v!	c #4B1EFF",
"w!	c #4F23FF",
"x!	c #D7D2E7",
"y!	c #888888",
"z!	c #909090",
"{!	c #545454",
"|!	c #D6D6D6",
"}!	c #979797",
"~!	c #AAAAAA",
" #	c #8F8F8F",
"!#	c #626262",
"##	c #643DFF",
"$#	c #4112FF",
"%#	c #7D5DFF",
"&#	c #DBD7EC",
"'#	c #5A5A5A",
"(#	c #B8B8B8",
")#	c #838383",
"*#	c #C6C6C6",
"+#	c #949494",
",#	c #555555",
"-#	c #D4D4D4",
".#	c #6E6E6E",
"0#	c #929292",
"1#	c #6D6D6D",
"2#	c #CECDD0",
"3#	c #633CFF",
"4#	c #6D49FF",
"5#	c #858585",
"6#	c #A2A2A2",
"7#	c #C9C9C9",
"8#	c #878787",
"9#	c #7A7A7A",
":#	c #959595",
";#	c #9F9F9F",
"<#	c #CECED1",
"=#	c #5B32FF",
">#	c #BAA9FF",
"?#	c #C2B4FF",
"@#	c #5E37FF",
"A#	c #7755FF",
"B#	c #3704FF",
"C#	c #8D72FF",
"D#	c #724FFF",
"E#	c #3301FF",
"F#	c #CCC0FF",
"G#	c #6D48FF",
"H#	c #6C47FF",
"I#	c #CDC1FF",
"J#	c #4B1FFF",
"K#	c #3907FF",
"L#	c #7654FF",
"M#	c #714EFF",
"                                                                ",
"                # $ % & ' & ' & ' & ' & ' & ' & ' & ' & ( )     ",
"              * + , - . 0 . 0 . 0 . 0 . 0 . 0 . 0 - , 1 2 3 4   ",
"            5 6 . 7 8 9 : ; : 9 : ; : 9 : ; : 9 ; 8 < = > ? @   ",
"          A B C D E                               F G H I J K   ",
"        L ) M N O                               P Q R S T U @   ",
"      V W C X Y                               Z S [ ] ^   _ K   ",
"    ` a - b c                               d e H f g     _ @   ",
"  h ) [ i j                               k l , l m       n K   ",
"  o p p q r s t t t s t t t s t t t s t t u v w x         6 @   ",
"  y 2 3 z 3 1 3 z 3 1 3 z 3 1 3 z 3 1 3 z 2 > {           _ K   ",
"  | K } # # # # # # # # # # # # # # # # ~  !> m           _ @   ",
"  @ n                                     !!> m           n K   ",
"  #!n                                     !!> m           6 @   ",
"  @ n $!%!&!                              !!> '!          _ K   ",
"  #!n (!)!*!                              !!> m           _ @   ",
"  @ +!,!-!.!0!    1!2!3!4!    &!      &!  5!> m           n K   ",
"  #!6!7!8!9!:!  ;!<!.!=!>!?!@!A!B!  :!C!D!E!> m           6 @   ",
"  @ F!G!H!I!J!K!L!M!N!A!O!P!Q!C!R!S!H!T!U!!!> '!          _ K   ",
"  #!n V!W!X!Q!C!Y!*!J!:!Z!H![!1!]!^!]!3!  !!> m           _ @   ",
"  @ n _!W!P!`!a!b!c!d!e!f!g!Q!  h!i!d!    !!> m           6 K   ",
"  #!n _!W!P!j!g!k!l!m!n!o!p!    q!r!s!t!  !!> m         u!v!w!  ",
"  @ n x!M!y!j!z!{!|!  ?!}!~!  l!I! #!#)!  !!> '!      F ##$#%#  ",
"  #!n &# #'#(#2!Z!)#*#+#,#N!-#.#0#  +#1#2#!!> m     5 3#H 4#8   ",
"  @ n     5#6#  7#8#9#.!m!  3!:#      ;#<#!!> m   A =#M S Z     ",
"  #!n                                     !!> >#?#@#M A#:       ",
"  @ n                                     !!B#C#o $#D#j         ",
"  #!n                                     !!E#[ H e 8           ",
"  @ U F#                                  G#2 , H#I#            ",
"  J#B#C . - 0 - . - 0 - . - 0 - . - 0 - . K#p L#Y               ",
"  M#4 ' ' & % ' ' & % ' ' & % ' ' & % ' ' ' =#F                 ",
"                                                                "};