/* XPM */ 
static const unsigned char * compliation_xpm[] = {
"24 24 224 2",
"  	c None",
"! 	c white",
"# 	c #FBFBFB",
"$ 	c #FCFCFC",
"% 	c #FEFEFE",
"& 	c #D6D6D6",
"' 	c #D7D7D7",
"( 	c #EDEDED",
") 	c #EFEFEF",
"* 	c #FAFAFA",
"+ 	c #A7A7A7",
", 	c #A6A6A6",
"- 	c #FDFDFD",
". 	c #F6F6F6",
"0 	c #AFAFAF",
"1 	c #A2A2A2",
"2 	c #9C9C9C",
"3 	c #828282",
"4 	c #555555",
"5 	c #989898",
"6 	c #B2B2B2",
"7 	c #E1E1E1",
"8 	c #B1B1B1",
"9 	c #A0A0A0",
": 	c #AEAEAE",
"; 	c #FEFEFF",
"< 	c #FFFEFF",
"= 	c #F4F4F4",
"> 	c #818181",
"? 	c #606060",
"@ 	c #BBBBBB",
"A 	c #7E7E7E",
"B 	c #5D5D5D",
"C 	c #A4A4A4",
"D 	c #B6B6B6",
"E 	c #757575",
"F 	c #C3C3C3",
"G 	c #EEEDF2",
"H 	c #C5B6FF",
"I 	c #9B82FF",
"J 	c #9175FF",
"K 	c #9074FF",
"L 	c #A58FFF",
"M 	c #D8CEFF",
"N 	c #FDFCFF",
"O 	c #E4E4E4",
"P 	c #9F9F9F",
"Q 	c #6B6B6B",
"R 	c #B9B9B9",
"S 	c #8E8E8E",
"T 	c #8F8F8F",
"U 	c #E3E3E3",
"V 	c #BFBFBF",
"W 	c #A8A8A8",
"X 	c #727272",
"Y 	c #EAEAEA",
"Z 	c #E8E8E8",
"[ 	c #EEECF4",
"] 	c #A893FE",
"^ 	c #704CFF",
"_ 	c #623BFF",
"` 	c #623AFF",
"a 	c #5227FF",
"b 	c #582FFF",
"c 	c #A792FF",
"d 	c #FBF9FF",
"e 	c #D5D5D5",
"f 	c #7D7D7D",
"g 	c #A9A9A9",
"h 	c #767676",
"i 	c #BCBCBC",
"j 	c #C5C5C5",
"k 	c #8C8C8C",
"l 	c #C1C1C1",
"m 	c #E6E5E9",
"n 	c #D8CFFD",
"o 	c #C4B5FF",
"p 	c #BFB0FF",
"q 	c #BFAFFF",
"r 	c #8F73FF",
"s 	c #5C34FF",
"t 	c #957BFF",
"u 	c #F9F8FF",
"v 	c #A5A5A5",
"w 	c #929292",
"x 	c #CBCBCB",
"y 	c #B8B8B8",
"z 	c #919191",
"{ 	c #AAAAAA",
"| 	c #D1D1D1",
"} 	c #ADADAD",
"~ 	c #F1F1F1",
" !	c #FDFDFF",
"!!	c #B8A7FF",
"#!	c #6640FF",
"$!	c #FAF8FF",
"%!	c #F9F9F9",
"&!	c #B9A8FF",
"'!	c #F7F5FF",
"(!	c #E3DDFF",
")!	c #DAD1FF",
"*!	c #D9CFFF",
"+!	c #DAD0FF",
",!	c #D9D0FF",
"-!	c #A089FF",
".!	c #6039FF",
"0!	c #FBFBFF",
"1!	c #D3C8FF",
"2!	c #7553FF",
"3!	c #5328FF",
"4!	c #5429FF",
"5!	c #542AFF",
"6!	c #4E21FF",
"7!	c #562CFF",
"8!	c #9D85FF",
"9!	c #FAF9FF",
":!	c #B4A1FF",
";!	c #572DFF",
"<!	c #714DFF",
"=!	c #957AFF",
">!	c #A28CFF",
"?!	c #CEC3FF",
"@!	c #F8F7FF",
"A!	c #AE9BFF",
"B!	c #552AFF",
"C!	c #A690FF",
"D!	c #EBE7FF",
"E!	c #EBE6FF",
"F!	c #EAE5FF",
"G!	c #ECE7FF",
"H!	c #ECE8FF",
"I!	c #ECE7FE",
"J!	c #EBE6FE",
"K!	c #EBE7FE",
"L!	c #EAE6FD",
"M!	c #EEEBFF",
"N!	c #F9F7FF",
"O!	c #AF9BFF",
"P!	c #552BFF",
"Q!	c #B29FFF",
"R!	c #EAE4FF",
"S!	c #E9E3FF",
"T!	c #E7E7E7",
"U!	c #F3F3F3",
"V!	c #AE9AFF",
"W!	c #B19EFF",
"X!	c #E4DEFF",
"Y!	c #9F88FF",
"Z!	c #8C6FFF",
"[!	c #D7CEFF",
"]!	c #FCFBFE",
"^!	c #C4C4C4",
"_!	c #737373",
"`!	c #DEDEDE",
"a!	c #7F7F7F",
"b!	c #E2E2E2",
"c!	c #B7B7B7",
"d!	c #848484",
"e!	c #9E86FF",
"f!	c #D2C7FF",
"g!	c #8E72FF",
"h!	c #8566FF",
"i!	c #D0C6F8",
"j!	c #D3D3D6",
"k!	c #909090",
"l!	c #494949",
"m!	c #A1A1A1",
"n!	c #949494",
"o!	c #6C6C6C",
"p!	c #575757",
"q!	c #EBEBEB",
"r!	c #5F37FF",
"s!	c #7958FF",
"t!	c #613AFF",
"u!	c #3E0EFF",
"v!	c #4517FF",
"w!	c #8467F9",
"x!	c #CCC6E4",
"y!	c #B3B2B5",
"z!	c #5F5F5F",
"{!	c #D8D8D8",
"|!	c #999999",
"}!	c #CCCCCC",
"~!	c #DCDCDC",
" #	c #939393",
"!#	c #9B9B9B",
"##	c #656565",
"$#	c #ECECEC",
"%#	c #FCFBFF",
"&#	c #D4C9FF",
"'#	c #9277FF",
"(#	c #6944FF",
")#	c #491BFF",
"*#	c #7857FF",
"+#	c #E6DFFF",
",#	c #E3E2E5",
"-#	c #CDCDCD",
".#	c #959595",
"0#	c #CFCFCF",
"1#	c #DDDDDD",
"2#	c #D0D0D0",
"3#	c #6F6F6F",
"4#	c #E6E0FF",
"5#	c #DFD7FF",
"6#	c #D4CAFF",
"7#	c #9B83FF",
"8#	c #5B33FF",
"9#	c #6D4AFF",
":#	c #D9D9D9",
";#	c #BABABA",
"<#	c #ABABAB",
"=#	c #E7E2FF",
">#	c #E9E9E9",
"?#	c #838383",
"@#	c #E0E0E0",
"A#	c #F2F2F2",
"B#	c #898989",
"C#	c #868686",
"D#	c #F0F0F0",
"E#	c #F4F1FF",
"F#	c #D1C6FF",
"G#	c #FBFAFF",
"H#	c #C7C7C7",
"I#	c #F8F8F8",
"! ! ! ! ! ! ! ! ! ! ! ! ! ! ! ! ! ! ! ! ! ! ! ! ",
"! ! ! ! ! # $ ! ! ! ! ! ! ! ! ! ! ! ! ! ! ! ! ! ",
"! ! ! % ! & ' ! ! ! ! ! ! ! ! ! ! ! ! ! ! ! ! ! ",
"! # ( ) * + , # - % - $ - % ! ! ! ! ! ! ! ! ! ! ",
". 0 1 2 ' 3 4 5 6 7 8 9 : ) ! ; ! ; < ; ! ! ! ! ",
"= 9 > ? @ A B , C D E : F G H I J K J L M N ! ! ",
"O P , Q R S T U V W X Y Z [ ] ^ _ ` a b c d ! $ ",
"e f g h R 5 3 i i j k l R m n o p q r s t u ! * ",
"( v 1 w x y z { | ) j } R ~ ;  !;  !!!#!t $!! - ",
"% * # %!$ # * * - % $ # $ % ! ! ! ! &!#!t u ! ! ",
"! ; '!(!)!*!+!,!,!*!+!,!,!*!+!,!,!*!-!.!t $!! ! ",
"! 0!1!2!3!4!5!4!5!4!5!4!5!4!5!4!5!4!6!7!8!9!! ! ",
"! u :!;!<!t t =!t t t =!t t t =!t t t >!?!N ! ! ",
"! @!A!B!C!D!E!F!G!G!H!I!J!K!H!G!G!L!K!M!'!% ! ! ",
"! N!O!P!Q!N!R!S!N ! ! %!T!%!! $ U!Z ) - ! %!~ - ",
"! @!V!P!W!X!Y!Z![!]!. ^!_!`!$ l 5 a!P b!~ c!d!) ",
"! N!O!B!e!f!g!5!h!i!j!k!l!& # m!, + n!V e o!p!q!",
"! N!:!P!r!s!t!u!v!w!x!y!z!{!b!|!}!~! #!#O n!##$#",
"! %#&#'#s!s!(#)#u!*#+#,#o!{!-#.#0#1#k w - 2#3#( ",
"! ; @!4#5#6#7#8#9#q 9!O o!{!:#3 ;#-#.#<#- 2#3#$#",
"! ! ! ; < =#7#2!p d ! >#?#@#A#B#!#W v e % {!C#D#",
"! ! ! ! ! E#&#F#G#; ! = j ~ - 7 D , 2#$ ! $#H#I#",
"! ! ! ! ! ; %#%#! ! ! % # % ! - %!I#$ ! ! - # % ",
"! ! ! ! ! ! ! ! ! ! ! ! ! ! ! ! ! ! ! ! ! ! ! ! "};