/* XPM */ 
static const char * new_xpm[] = {
"24 24 14 1",
" 	c None",
"!	c white",
"#	c #5930FF",
"$	c #3300FF",
"%	c #4C20FF",
"&	c #7350FF",
"'	c #F3F0FF",
"(	c #B3A0FF",
")	c #D9D0FF",
"*	c #3F10FF",
"+	c #E6E0FF",
",	c #6640FF",
"-	c #7F60FF",
".	c #BFB0FF",
"!!!!!!!!!!!!!!!!!!!!!!!!",
"!!!!!#$$$%&'!%$$$$%(!!!!",
"!!!!!$$$$$$#'%$$$$$$!!!!",
"!!!!!$$!!)*$#+,$$($$!!!!",
"!!!!!$$!!!)*$#'-$$$$!!!!",
"!!!!!$$!!!!)*$,!-$$$!!!!",
"!!!!!$$!!!!!)*$-!($$!!!!",
"!!!!!$$!!!!!!($$-!))!!!!",
"!!!!!$$!!!!!!!($$-!!!!!!",
"!!!!!$$!!!!!!!!($$-!!!!!",
"!!!!!$$!!!!!!!!!($$%!!!!",
"!!!!!$$!!!!!!!!!!.$$!!!!",
"!!!!!$$!!!!!!!!!!!$$!!!!",
"!!!!!$$!!!!!!!!!!!$$!!!!",
"!!!!!$$!!!!!!!!!!!$$!!!!",
"!!!!!$$!!!!!!!!!!!$$!!!!",
"!!!!!$$!!!!!!!!!!!$$!!!!",
"!!!!!$$!!!!!!!!!!!$$!!!!",
"!!!!!$$!!!!!!!!!!!$$!!!!",
"!!!!!$$!!!!!!!!!!!$$!!!!",
"!!!!!$$!!!!!!!!!!!$$!!!!",
"!!!!!$$$$$$$$$$$$$$$!!!!",
"!!!!!*$$$$$$$$$$$$$-!!!!",
"!!!!!!!!!!!!!!!!!!!!!!!!"};