/* XPM */ 
static const char * open_xpm[] = {
"24 24 17 1",
" 	c None",
"!	c white",
"#	c #CCC0FF",
"$	c #D9D0FF",
"%	c #F3F0FF",
"&	c #3F10FF",
"'	c #3300FF",
"(	c #6640FF",
")	c #7F60FF",
"*	c #5930FF",
"+	c #4C20FF",
",	c #A690FF",
"-	c #9980FF",
".	c #E6E0FF",
"0	c #B3A0FF",
"1	c #7350FF",
"2	c #BFB0FF",
"!!!!!!!!!!!!!!!!!!!!!!!!",
"!!!!!!!!!!!!!!!!!!!!!!!!",
"!!!!!!!!!!!!!!!!!!!!!!!!",
"!!!!!!!!!!!!!!!!!!!!!!!!",
"!!!!#$!!!!!!!!!!!!!!!!!!",
"!!%&''''''''''(((#!!!!!!",
"!!)''*'''''''''''&%!!!!!",
"!!'+!!!!!!!!!!!!*',!!!!!",
"!!''!!!!!!!!!!!!-'-!!!!!",
"!!''!!!!!!!!!!!!-'-!!!!!",
"!!''!!!!!!!!!!!!-'-!!!!!",
"!!''!!!!!!!!!!!!.-$!!!!!",
"!!''!!!!!!!!!!!!!!!!!!!!",
"!!''!!!0+'''''''''''''',",
"!!''!!,'''''''''''''''&$",
"!!)1!)'')!!!!!!!!!!-''2!",
"!!!!)'',!!!!!!!!!!0''0!!",
"!!%(''0!!!!!!!!!!#'')!!!",
"!!('''''''''''''''')!!!!",
"!!+'''''''''''''''*%!!!!",
"!!!!!!!!!!!!!!!!!!!!!!!!",
"!!!!!!!!!!!!!!!!!!!!!!!!",
"!!!!!!!!!!!!!!!!!!!!!!!!",
"!!!!!!!!!!!!!!!!!!!!!!!!"};