/* XPM */ 
static const char * project_xpm[] = {
"32 32 245 2",
"  	c None",
"! 	c black",
"# 	c #E4DDFF",
"$ 	c #C9BCFF",
"% 	c #C3B4FF",
"& 	c #C1B2FF",
"' 	c #C2B3FF",
"( 	c #C3B5FF",
") 	c #D7CDFF",
"* 	c #E9E3FF",
"+ 	c #D7CEFF",
", 	c #8E72FF",
"- 	c #5025FF",
". 	c #572EFF",
"0 	c #582FFF",
"1 	c #592FFF",
"2 	c #6139FF",
"3 	c #7B5AFF",
"4 	c #AD98FF",
"5 	c #E9E4FF",
"6 	c #A994FF",
"7 	c #6C48FF",
"8 	c #5126FF",
"9 	c #5328FF",
": 	c #5930FF",
"; 	c #5B32FF",
"< 	c #5A31FF",
"= 	c #562CFF",
"> 	c #7E5FFF",
"? 	c #BEAFFF",
"@ 	c #6F4BFF",
"A 	c #AC97FF",
"B 	c #B7A6FF",
"C 	c #B8A6FF",
"D 	c #B5A4FF",
"E 	c #A58FFF",
"F 	c #7756FF",
"G 	c #7E5EFF",
"H 	c #D1C5FF",
"I 	c #F4F1FF",
"J 	c #AF9BFF",
"K 	c #6741FF",
"L 	c #3E0EFF",
"M 	c #4719FF",
"N 	c #8C70FF",
"O 	c #9075FF",
"P 	c #9176FF",
"Q 	c #8B6EFF",
"R 	c #5D35FF",
"S 	c #5E36FF",
"T 	c #9E86FF",
"U 	c #BAA9FF",
"V 	c #6B46FF",
"W 	c #653EFF",
"X 	c #E4DEFF",
"Y 	c #D6CDFF",
"Z 	c #A088FF",
"[ 	c #5C34FF",
"] 	c #704DFF",
"^ 	c #C5B6FF",
"_ 	c #8465FF",
"` 	c #4D20FF",
"a 	c #6843FF",
"b 	c #B19EFF",
"c 	c #DFD7FF",
"d 	c #8466FF",
"e 	c #643DFF",
"f 	c #997FFF",
"g 	c #BAAAFF",
"h 	c #6742FF",
"i 	c #EDE9FF",
"j 	c #E8E2FF",
"k 	c #B6A4FF",
"l 	c #7553FF",
"m 	c #613AFF",
"n 	c #8F73FF",
"o 	c #DAD1FF",
"p 	c #DDD4FF",
"q 	c #A792FF",
"r 	c #633DFF",
"s 	c #6A45FF",
"t 	c #A089FF",
"u 	c #DED5FF",
"v 	c #8C6FFF",
"w 	c #6640FF",
"x 	c #EDE8FF",
"y 	c #D6CBFF",
"z 	c #896CFF",
"{ 	c #5C33FF",
"| 	c #ECE8FF",
"} 	c #C0B0FF",
"~ 	c #8161FF",
" !	c #623BFF",
"!!	c #7A5AFF",
"#!	c #B3A0FF",
"$!	c #7D5CFF",
"%!	c #6842FF",
"&!	c #E5DFFF",
"'!	c #AF9CFF",
"(!	c #6F4CFF",
")!	c #967CFF",
"*!	c #D5CBFF",
"+!	c #DCD4FF",
",!	c #A48EFF",
"-!	c #4D21FF",
".!	c #CBBEFF",
"0!	c #6038FF",
"1!	c #7A59FF",
"2!	c #EEEAFF",
"3!	c #C4B6FF",
"4!	c #7C5CFF",
"5!	c #4B1EFF",
"6!	c #5429FF",
"7!	c #9A81FF",
"8!	c #724FFF",
"9!	c #643EFF",
":!	c #9277FF",
";!	c #DBD2FF",
"<!	c #AA95FF",
"=!	c #C7BAFF",
">!	c #8C71FF",
"?!	c #BFB0FF",
"@!	c #F0ECFF",
"A!	c #EAE6FF",
"B!	c #F2EFFF",
"C!	c #DDD5FF",
"D!	c #A690FF",
"E!	c #9F88FF",
"F!	c #8262FF",
"G!	c #F9F7FF",
"H!	c #653FFF",
"I!	c #6D49FF",
"J!	c #7B5BFF",
"K!	c #8769FF",
"L!	c #C9BBFF",
"M!	c #F6F4FF",
"N!	c #CFC3FF",
"O!	c #724EFF",
"P!	c #5F37FF",
"Q!	c #9D84FF",
"R!	c #F1EDFF",
"S!	c #E7E1FF",
"T!	c #E6E0FF",
"U!	c #E6E1FF",
"V!	c #F1EEFF",
"W!	c #8D70FF",
"X!	c #D1C6FF",
"Y!	c #BEAEFF",
"Z!	c #876AFF",
"[!	c #8669FF",
"]!	c #947AFF",
"^!	c #BDADFF",
"_!	c #B7A5FF",
"`!	c #6E4AFF",
"a!	c #A28BFF",
"b!	c #DCD3FF",
"c!	c #C5B7FF",
"d!	c #3C0CFF",
"e!	c #3A09FF",
"f!	c #7452FF",
"g!	c #7654FF",
"h!	c #9980FF",
"i!	c #EAE5FF",
"j!	c #BCABFF",
"k!	c #7F60FF",
"l!	c #5B33FF",
"m!	c #886BFF",
"n!	c #4E22FF",
"o!	c #CDC1FF",
"p!	c #714DFF",
"q!	c #9379FF",
"r!	c #6E4BFF",
"s!	c #E3DCFF",
"t!	c #704CFF",
"u!	c #A48DFF",
"v!	c #B4A1FF",
"w!	c #714EFF",
"x!	c #7655FF",
"y!	c #5E37FF",
"z!	c #9278FF",
"{!	c #CEC2FF",
"|!	c #B8A7FF",
"}!	c #8162FF",
"~!	c #A28CFF",
" #	c #D9D0FF",
"!#	c #CDC0FF",
"##	c #D2C7FF",
"$#	c #B09DFF",
"%#	c #E1DAFF",
"&#	c #D8CEFF",
"'#	c #5F38FF",
"(#	c #8567FF",
")#	c #552BFF",
"*#	c #7C5BFF",
"+#	c #633CFF",
",#	c #D3C8FF",
"-#	c #C2B4FF",
".#	c #4C20FF",
"0#	c #3A08FF",
"1#	c #7755FF",
"2#	c #4C1FFF",
"3#	c #D5CAFF",
"4#	c #D4C9FF",
"5#	c #6039FF",
"6#	c #B9A7FF",
"7#	c #DBD3FF",
"8#	c #9074FF",
"9#	c #7958FF",
":#	c #5D36FF",
";#	c #B9A8FF",
"<#	c #AE9BFF",
"=#	c #6C49FF",
">#	c #613BFF",
"?#	c #987EFF",
"@#	c #D4CAFF",
"A#	c #F3F0FF",
"B#	c #AB97FF",
"C#	c #A38CFF",
"D#	c #6C47FF",
"E#	c #967BFF",
"F#	c #CFC4FF",
"G#	c #8668FF",
"H#	c #C0B1FF",
"I#	c #EBE6FF",
"J#	c #9B82FF",
"K#	c #7856FF",
"L#	c #5227FF",
"M#	c #8264FF",
"N#	c #987FFF",
"O#	c #4314FF",
"P#	c #8D71FF",
"Q#	c #C8BAFF",
"R#	c #8365FF",
"S#	c #BEADFF",
"T#	c #DED6FF",
"U#	c #DBD1FF",
"V#	c #DAD0FF",
"W#	c #8E73FF",
"X#	c #572DFF",
"Y#	c #4F23FF",
"Z#	c #552AFF",
"[#	c #542AFF",
"]#	c #CABDFF",
"^#	c #AE9AFF",
"_#	c #9E87FF",
"    # $ % & ' & ' ( ) *                                         ",
"  + , - . 0 1 0 0 1 2 3 4 5           6 7 8 9 : ; < ; < = > &   ",
"  ? @ = A B C B C D E F < G H I       J K L M F N O P Q R S T   ",
"  U V W X             Y Z [ ] J X       ^ _ ` a b c     d e f   ",
"  g V h i               j k l m n o       p q r s t u   v w f   ",
"  U V K x                   y z { @ k 5     | } ~  !!!#!$!W f   ",
"  U V %!x                     &!'!(!2 )!*!      +!,!s : -!0 f   ",
"  U V K x                         .!z 0!1!B 2!    i 3!4!5!6!7!  ",
"  g V h i                           c E 8!9!:!c       ;!<!t 3!  ",
"  U V K x                             x =!>!0 3 ?!      @!A!B!  ",
"  U V %!x                                 C!D!h s E!            ",
"  U V K x                                   2!& 4!2 F!=!        ",
"  g V h i                                     G!) 7!H!I!D!c     ",
"  U V K x                                         j B J!m K!L!  ",
"  U V %!x                                           M!N!O!P!Q!  ",
"  U V K x                                             R!N w f   ",
"  g V h i               S!T!S!T!S!T!S!U!R!            V!W!w f   ",
"  X!~ R Y!i           <!Z![!K![!K![!K!K!]!^!          V!N w f   ",
"    _!(!`!a!b!      c!F d!e!; `!f!f!8![ M g!          V!W!w h!  ",
"    i!j!k!l!m!=!      j!1!n!(!,!o!    E!R p!          R!N w f   ",
"        C!q!9!r!A s!    b!]!0!t!u!o   v!W w!          V!W!w f   ",
"          2!k x!y!z!{!      |!1!r }!j!~! !p!          V!N w f   ",
"   #!#p       ##W!l!1!$#%#    &#Q!w '#s 8 p!          V!W!w h!  ",
"  (#)#*#% i!      <!w!+#z ,#      -#x!.#0#]           R!N w f   ",
"  1#d!2#H!Z 3#      4#O 5#f!6#T!    7#7!t!8#          V!W!w f   ",
"  g!9 9#1!:#k!;#      s!<#=#>#?#@#    A#&!T!          V!N w f   ",
"  g!2 B#  C#D#9!E#*!      F#G#l!F H#                  V!W!w h!  ",
"  g!P!<!    ? k!)#t!k &!    I#u!s H!J#)               R!N w f   ",
"  K#L#M#<#v!$#N#I!O#9 P#H       Q#[!; R#S#T#U#V#o o o N!G +#f   ",
"  W#)#6!1 1 : X#9 -!Y#< 8#        %#T w r a X#Z#)#Z#)#[#9 9!~!  ",
"  c .!3!^ 3!c!3!^ 3!c!]#p             ]#^#t _#T T T T T E!b *!  ",
"                                                                "};