/* XPM */ 
static const unsigned char * run_xpm[] = {
"24 24 134 2",
"  	c None",
"! 	c white",
"# 	c #FEFEFF",
"$ 	c #FFFEFF",
"% 	c #FCFBFF",
"& 	c #BCACFF",
"' 	c #B09CFF",
"( 	c #DFD7FF",
") 	c #F9F7FF",
"* 	c #C5B7FF",
"+ 	c #AD99FF",
", 	c #FDFCFF",
"- 	c #7B5BFF",
". 	c #5228FF",
"0 	c #947AFF",
"1 	c #E0D8FF",
"2 	c #F2EFFF",
"3 	c #8B6EFF",
"4 	c #562CFF",
"5 	c #8F73FF",
"6 	c #DDD4FF",
"7 	c #FCFCFF",
"8 	c #F8F6FF",
"9 	c #714EFF",
": 	c #3C0CFF",
"; 	c #5329FF",
"< 	c #E0D9FF",
"= 	c #F1EDFF",
"> 	c #8060FF",
"? 	c #471AFF",
"@ 	c #4B1FFF",
"A 	c #9176FF",
"B 	c #DCD3FF",
"C 	c #F8F7FF",
"D 	c #724FFF",
"E 	c #572DFF",
"F 	c #633CFF",
"G 	c #623BFF",
"H 	c #9379FF",
"I 	c #E3DCFF",
"J 	c #FEFDFF",
"K 	c #8162FF",
"L 	c #5930FF",
"M 	c #6640FF",
"N 	c #5F37FF",
"O 	c #9075FF",
"P 	c #DED5FF",
"Q 	c #7350FF",
"R 	c #9074FF",
"S 	c #5F38FF",
"T 	c #9378FF",
"U 	c #E3DDFF",
"V 	c #FDFDFF",
"W 	c #8263FF",
"X 	c #6A45FF",
"Y 	c #B6A4FF",
"Z 	c #5E36FF",
"[ 	c #8E72FF",
"] 	c #CEC1FF",
"^ 	c #9277FF",
"_ 	c #E5DFFF",
"` 	c #6C47FF",
"a 	c #CEC2FF",
"b 	c #957BFF",
"c 	c #8B6FFF",
"d 	c #E1DAFF",
"e 	c #D0C4FF",
"f 	c #EDE9FF",
"g 	c #F0ECFF",
"h 	c #6B47FF",
"i 	c #977EFF",
"j 	c #5A31FF",
"k 	c #E9E3FF",
"l 	c #D0C5FF",
"m 	c #FAF8FF",
"n 	c #7655FF",
"o 	c #613AFF",
"p 	c #EBE7FF",
"q 	c #D7CDFF",
"r 	c #BCABFF",
"s 	c #FAF9FF",
"t 	c #EEEAFF",
"u 	c #AE9BFF",
"v 	c #582FFF",
"w 	c #7654FF",
"x 	c #F4F1FF",
"y 	c #B29FFF",
"z 	c #5E37FF",
"{ 	c #D6CCFF",
"| 	c #CFC4FF",
"} 	c #EFEBFF",
"~ 	c #633DFF",
" !	c #7553FF",
"!!	c #F0EDFF",
"#!	c #F6F3FF",
"$!	c #6741FF",
"%!	c #7351FF",
"&!	c #C8BAFF",
"'!	c #7250FF",
"(!	c #C0B1FF",
")!	c #643EFF",
"*!	c #CDC1FF",
"+!	c #6B46FF",
",!	c #C7B9FF",
"-!	c #B19EFF",
".!	c #F6F4FF",
"0!	c #643DFF",
"1!	c #7D5DFF",
"2!	c #7856FF",
"3!	c #CCBFFF",
"4!	c #F9F8FF",
"5!	c #7857FF",
"6!	c #C5B6FF",
"7!	c #4517FF",
"8!	c #4E22FF",
"9!	c #7958FF",
":!	c #C9BCFF",
";!	c #4D21FF",
"<!	c #4A1DFF",
"=!	c #C3B5FF",
">!	c #4111FF",
"?!	c #C9BBFF",
"@!	c #FBF9FF",
"A!	c #F1EEFF",
"B!	c #8465FF",
"C!	c #481BFF",
"D!	c #6F4CFF",
"E!	c #F5F3FF",
"F!	c #A28CFF",
"G!	c #8A6DFF",
"H!	c #FBFAFF",
"I!	c #AE9AFF",
"J!	c #EFECFF",
"K!	c #ECE8FF",
"! ! ! ! ! ! ! ! ! ! ! ! ! ! ! ! ! ! ! ! ! ! ! ! ",
"! ! ! ! ! ! ! ! ! ! ! ! ! ! ! ! ! ! ! ! ! ! ! ! ",
"! ! ! ! ! ! ! ! ! ! ! ! ! ! ! ! ! ! ! ! ! ! ! ! ",
"! ! ! ! ! ! ! ! ! ! ! ! ! ! ! ! ! ! ! ! ! ! ! ! ",
"! ! ! # ! ! ! ! ! ! ! ! ! $ ! ! ! ! ! ! ! ! ! ! ",
"! ! % & ' ( ! ! ! ! ! ! ) * + ( , ! ! ! ! ! ! ! ",
"! ! ) - . 0 1 ! ! ! ! ! 2 3 4 5 6 7 ! ! ! ! ! ! ",
"! ! 8 9 : ; 0 < # ! ! ! = > ? @ A B , ! ! ! ! ! ",
"! ! C D E F G H I J ! ! = K L M N O P 7 ! ! ! ! ",
"! ! C Q 9 + R S T U V ! = W X Y T Z [ ( 7 # ! ! ",
"! ! C Q Q ] 6 A Z ^ _ , = W ` a _ b Z c d % ! ! ",
"! ! 8 Q Q e % 6 ^ L H f g W h e , U i j c k J ! ",
"! ! C Q Q l ! m e n o a p W ` e ! % q W N r s ! ",
"! ! C Q Q e # t u v w d t W h e $ x y z 9 { 7 ! ",
"! ! C Q Q | } ' ~  !e 8 !!W ` | #!y $!%!&!#!! ! ",
"! ! 8 Q '!(!+ )!n *!) # = W +!,!-!M w * .!# ! ! ",
"! ! C Q 0!1!$!2!3!4!! ! = W G W M 5!6!#!! ! ! ! ",
"! ! C D 7!8!9!:!s # ! ! = > ;!<!5!=!.!! ! ! ! ! ",
"! ! )  !>!w ?!@!! ! ! ! A!B!C!D!6!E!! ! ! ! ! ! ",
"! ! s F!G!:!H!# ! ! ! ! .!I!G!,!.!! ! ! ! ! ! ! ",
"! ! # p t s ! ! ! ! ! ! J J!K!C ! ! ! ! ! ! ! ! ",
"! ! ! # # # ! ! ! ! ! ! ! # # # ! ! ! ! ! ! ! ! ",
"! ! ! ! ! ! ! ! ! ! ! ! ! ! ! ! ! ! ! ! ! ! ! ! ",
"! ! ! ! ! ! ! ! ! ! ! ! ! ! ! ! ! ! ! ! ! ! ! ! "};