/* XPM */ 
static const char * save_all_xpm[] = {
"24 24 15 1",
" 	c None",
"!	c white",
"#	c #D9D0FF",
"$	c #CCC0FF",
"%	c #F3F0FF",
"&	c #5930FF",
"'	c #3300FF",
"(	c #3F10FF",
")	c #9980FF",
"*	c #7F60FF",
"+	c #6640FF",
",	c #B3A0FF",
"-	c #4C20FF",
".	c #A690FF",
"0	c #E6E0FF",
"!!!!!!!!!!!!!!!!!!!!!!!!",
"!!!!!!!!!!!!!!!!#$#!!!!!",
"!!!!%&'''''''''''''&%!!!",
"!!!!$''''''''''''&('&%!!",
"!!#)*'+!)')!%,)-'$#('+!!",
"!!(''''''''''''''.!#''!!",
"!!'')''''''''''+''*%''!!",
"!!''!!''!!!!!''!#&'+''!!",
"!!''!!''!!!!#''!!%''''!!",
"!!''!!''''''''(!!!''''!!",
"!!''!!-''''''')!!!''''!!",
"!!''!!!!!!!!!!!!!!''''!!",
"!!''!!!!!!!!!!!!!!''''!!",
"!!''!!!!!!!!!!!!!!''''!!",
"!!''!%$0!!!!!!!!!!''''!!",
"!!''!&'''''''''(,!''''!!",
"!!''$''-''''''''(!''''!!",
"!!''0''!!!!!!!!''%''''!!",
"!!''!''!!!!!!!!''.''''%!",
"!!''!''!!!!!!!!'')'+))%!",
"!!''+''''''''''''-')!!!!",
"!!('''''''''''''''')!!!!",
"!!#$$$#!!!!!!!!#$$$%!!!!",
"!!!!!!!!!!!!!!!!!!!!!!!!"};