/* XPM */ 
static const unsigned char * texture_icon_xpm[] = {
"32 32 391 2",
"  	c None",
"! 	c black",
"# 	c #AF9BFF",
"$ 	c #AA95FF",
"% 	c #D1C6FF",
"& 	c #CFC3FF",
"' 	c #CEC3FF",
"( 	c #CFC4FF",
") 	c #BCACFF",
"* 	c #552AFD",
"+ 	c #4C1EF9",
", 	c #5E34FA",
"- 	c #7D5DFD",
". 	c #B3A0FF",
"0 	c #7451FE",
"1 	c #5B31FB",
"2 	c #5A30F9",
"3 	c #5B31FA",
"4 	c #5A30FA",
"5 	c #5B30FA",
"6 	c #5A30FC",
"7 	c #582EFE",
"8 	c #8A6DFF",
"9 	c #DCD4FF",
": 	c #8567FE",
"; 	c #3F05DF",
"< 	c #4900A1",
"= 	c #4702B4",
"> 	c #440DE1",
"? 	c #5224F9",
"@ 	c #663FFC",
"A 	c #9277FF",
"B 	c #A088FE",
"C 	c #4C19EC",
"D 	c #4900A9",
"E 	c #4E0093",
"F 	c #4E0094",
"G 	c #4300BD",
"H 	c #3801F0",
"I 	c #8668FF",
"J 	c #5223F2",
"K 	c #4801AD",
"L 	c #5F004E",
"M 	c #5E0054",
"N 	c #57006D",
"O 	c #4203C8",
"P 	c #5428FB",
"Q 	c #B4A1FF",
"R 	c #896BFD",
"S 	c #4910D6",
"T 	c #590068",
"U 	c #610045",
"V 	c #620045",
"W 	c #5E0050",
"X 	c #4700AD",
"Y 	c #5123F7",
"Z 	c #B09CFF",
"[ 	c #896CFF",
"] 	c #4105D7",
"^ 	c #570071",
"_ 	c #650035",
"` 	c #660033",
"a 	c #650036",
"b 	c #60004D",
"c 	c #4D0093",
"d 	c #4B1BF6",
"e 	c #AD99FF",
"f 	c #7855FB",
"g 	c #490AC4",
"h 	c #5E0055",
"i 	c #660034",
"j 	c #4000CD",
"k 	c #7E5EFF",
"l 	c #C2B3FF",
"m 	c #5429FF",
"n 	c #3F01D0",
"o 	c #5A0063",
"p 	c #64003F",
"q 	c #520082",
"r 	c #5021F4",
"s 	c #BFB0FF",
"t 	c #663FFA",
"u 	c #4803B3",
"v 	c #5F004F",
"w 	c #63003C",
"x 	c #4B009E",
"y 	c #4E1DEF",
"z 	c #AE9BFF",
"{ 	c #CEC2FF",
"| 	c #6C48FF",
"} 	c #410CEA",
"~ 	c #4500B5",
" !	c #510083",
"!!	c #5D0054",
"#!	c #640039",
"$!	c #4D0095",
"%!	c #5426F6",
"&!	c #5B2FF8",
"'!	c #4B009D",
"(!	c #610048",
")!	c #5A0062",
"*!	c #4101CC",
"+!	c #7B5AFF",
",!	c #9074FF",
"-!	c #623AFB",
".!	c #430CE2",
"0!	c #4701B3",
"1!	c #500089",
"2!	c #560073",
"3!	c #4700AE",
"4!	c #582CF8",
"5!	c #5629F6",
"6!	c #4F008A",
"7!	c #630041",
"8!	c #64003C",
"9!	c #4C009B",
":!	c #4B19ED",
";!	c #AD98FF",
"<!	c #8A6EFF",
"=!	c #643DFD",
">!	c #4915EA",
"?!	c #4202C7",
"@!	c #3F02D4",
"A!	c #6138FB",
"B!	c #C0B1FF",
"C!	c #5224F5",
"D!	c #53007B",
"E!	c #64003D",
"F!	c #650034",
"G!	c #5C005D",
"H!	c #4101CA",
"I!	c #7756FF",
"J!	c #9176FE",
"K!	c #653EFF",
"L!	c #5227FE",
"M!	c #8466FF",
"N!	c #AB96FF",
"O!	c #4D1CF3",
"P!	c #580067",
"Q!	c #650033",
"R!	c #5E0052",
"S!	c #4A00A2",
"T!	c #4713EA",
"U!	c #AC97FF",
"V!	c #A690FF",
"W!	c #9B82FE",
"X!	c #4B17EA",
"Y!	c #5B005E",
"Z!	c #64003E",
"[!	c #550078",
"]!	c #4712E9",
"^!	c #7C5BFE",
"_!	c #D6CCFF",
"`!	c #CCBFFF",
"a!	c #8160FC",
"b!	c #480ED5",
"c!	c #550073",
"d!	c #54007B",
"e!	c #4603BC",
"f!	c #4814EB",
"g!	c #5529F9",
"h!	c #8263FE",
"i!	c #B8A6FF",
"j!	c #8D71FF",
"k!	c #8061FC",
"l!	c #6F49F7",
"m!	c #5F33F2",
"n!	c #4D1BED",
"o!	c #430EEA",
"p!	c #5121F0",
"q!	c #8C6FFD",
"r!	c #7856FD",
"s!	c #410BEB",
"t!	c #4005D8",
"u!	c #4713EC",
"v!	c #5A2FF9",
"w!	c #9075FE",
"x!	c #CABCFF",
"y!	c #6C46FC",
"z!	c #400AEA",
"{!	c #4509D3",
"|!	c #4706C0",
"}!	c #4A04AE",
"~!	c #4D019B",
" #	c #4F0090",
"!#	c #4A02A8",
"##	c #4912E1",
"$#	c #7450F9",
"%#	c #6A44FE",
"&#	c #4819FD",
"'#	c #5E36FB",
"(#	c #5626EB",
")#	c #4E008E",
"*#	c #610047",
"+#	c #610044",
",#	c #620042",
"-#	c #63003E",
".#	c #600047",
"0#	c #54017B",
"1#	c #4408D0",
"2#	c #5F33F5",
"3#	c #AE9AFE",
"4#	c #AE9AFF",
"5#	c #A58EFF",
"6#	c #501BE1",
"7#	c #4906B7",
"8#	c #5425F1",
"9#	c #9378FE",
":#	c #8E71FE",
";#	c #4405CC",
"<#	c #580068",
"=#	c #640038",
">#	c #5D0056",
"?#	c #4E039A",
"@#	c #4C18E8",
"A#	c #7A59FB",
"B#	c #4300C1",
"C#	c #660037",
"D#	c #650038",
"E#	c #65003A",
"F#	c #64003B",
"G#	c #650039",
"H#	c #650037",
"I#	c #60004A",
"J#	c #530283",
"K#	c #470ED8",
"L#	c #663EF9",
"M#	c #B6A4FE",
"N#	c #7756FE",
"O#	c #4600B3",
"P#	c #5D0055",
"Q#	c #58006A",
"R#	c #520080",
"S#	c #4D0196",
"T#	c #4800A9",
"U#	c #640037",
"V#	c #620041",
"W#	c #57006C",
"X#	c #4807BE",
"Y#	c #6037F9",
"Z#	c #BBAAFF",
"[#	c #B09DFF",
"]#	c #7351FE",
"^#	c #987EFF",
"_#	c #3D01D8",
"`#	c #4701AE",
"a#	c #4702B5",
"b#	c #4302C9",
"c#	c #4004D6",
"d#	c #3E04DF",
"e#	c #430DE9",
"f#	c #4411F1",
"g#	c #4101C8",
"h#	c #5B005D",
"i#	c #660035",
"j#	c #64003A",
"k#	c #570072",
"l#	c #4816F0",
"m#	c #A189FF",
"n#	c #9D84FE",
"o#	c #5C30F5",
"p#	c #4409D7",
"q#	c #4F1FF2",
"r#	c #A189FE",
"s#	c #6A45FF",
"t#	c #3B08F8",
"u#	c #4C1CF1",
"v#	c #633AF8",
"w#	c #7957FF",
"x#	c #9176FF",
"y#	c #A893FF",
"z#	c #BAA9FF",
"{#	c #957BFF",
"|#	c #4612EC",
"}#	c #4C0099",
"~#	c #4811E0",
" $	c #9276FE",
"!$	c #987FFF",
"#$	c #5324F1",
"$$	c #4C04A8",
"%$	c #550076",
"&$	c #4903AF",
"'$	c #592BEF",
"($	c #B19EFF",
")$	c #B9A7FF",
"*$	c #6C47FC",
"+$	c #4302C5",
",$	c #5F0051",
"-$	c #480CCF",
".$	c #8060FB",
"0$	c #A18AFE",
"1$	c #5021F1",
"2$	c #4B02A4",
"3$	c #5C005C",
"4$	c #4602B8",
"5$	c #6338F3",
"6$	c #A48DFF",
"7$	c #420AE2",
"8$	c #520083",
"9$	c #480AC7",
":$	c #7856FA",
";$	c #9377FE",
"<$	c #4612EF",
"=$	c #4F008D",
">$	c #630042",
"?$	c #660036",
"@$	c #590067",
"A$	c #4502BB",
"B$	c #5324F2",
"C$	c #8061FF",
"D$	c #B5A3FF",
"E$	c #5B30F7",
"F$	c #4602B9",
"G$	c #620043",
"H$	c #490AC7",
"I$	c #7956FA",
"J$	c #7552FB",
"K$	c #470CD3",
"L$	c #510085",
"M$	c #590065",
"N$	c #4900A2",
"O$	c #3F01D2",
"P$	c #582BF3",
"Q$	c #9075FF",
"R$	c #C2B4FF",
"S$	c #8E72FF",
"T$	c #4005DA",
"U$	c #57006B",
"V$	c #60004B",
"W$	c #6942F8",
"X$	c #7B5AFC",
"Y$	c #4913E3",
"Z$	c #50018A",
"[$	c #610046",
"]$	c #620040",
"^$	c #4701B1",
"_$	c #4108DF",
"`$	c #5F36F7",
"a$	c #4F20F2",
"b$	c #4501BA",
"c$	c #53007F",
"d$	c #510087",
"e$	c #4200C2",
"f$	c #5326F9",
"g$	c #8262FD",
"h$	c #4913E2",
"i$	c #4F0191",
"j$	c #56006F",
"k$	c #5A0064",
"l$	c #5B005B",
"m$	c #590064",
"n$	c #4301C2",
"o$	c #6036F7",
"p$	c #9C83FF",
"q$	c #582EFD",
"r$	c #5327FB",
"s$	c #5226FB",
"t$	c #5327FC",
"u$	c #5227FD",
"v$	c #6E4AFF",
"w$	c #8262FE",
"x$	c #5529FA",
"y$	c #4D1DF0",
"z$	c #4B14DC",
"{$	c #4803B5",
"|$	c #4B009F",
"}$	c #4F0092",
"~$	c #4E0091",
" %	c #4501B6",
"!%	c #3A02E8",
"#%	c #3D0CFE",
"$%	c #643DFF",
"%%	c #B9A8FF",
"&%	c #AF9CFF",
"'%	c #B7A5FF",
"(%	c #8B6EFD",
")%	c #7653FB",
"*%	c #653DFA",
"+%	c #5A2FF8",
",%	c #5629F7",
"-%	c #4E20F7",
".%	c #4917F0",
"0%	c #4310EF",
"1%	c #3B09FA",
"2%	c #3705FF",
"3%	c #4314FF",
"4%	c #987FFE",
"5%	c #8567FD",
"6%	c #5A31FF",
"7%	c #5328FF",
"8%	c #5227FF",
"                                                                ",
"                                            # $                 ",
"            % & & ' ( & &                 ) * + , - .           ",
"          0 1 2 3 4 5 2 3 6 7 8 9         : ; < = > ? @ A       ",
"        B C D E E E E E F G H I         ) J K L M N F O P Q     ",
"        R S T U V U V U W X Y Z         [ ] ^ _ ` a b c d e     ",
"        f g h ` ` ` ` i T j k         l m n o _ ` ` p q r s     ",
"        t u v ` ` ` ` w x y z         { | } ~  !!!#!U $!%!      ",
"        &!'!(!` ` ` i )!*!+!              ,!-!.!0!1!2!3!4!      ",
"        5!6!7!` ` ` 8!9!:!;!                  <!=!>!?!@!A!      ",
"      B!C!D!E!` ` F!G!H!I!                        J!K!L!M!      ",
"      N!O!P!_ Q!8!R!S!T!U!                            V!        ",
"      W!X!Y!Z!!![!3!]!^!            _!& `!%                     ",
"      a!b!c!d!e!f!g!h!      i!j!k!l!m!n!o!p!q!                  ",
"      r!s!t!u!v!w!        x!y!z!{!|!}!~! #!###$#                ",
"      %#&#'#J!            Z (#)#*#+#,#-#-#.#0#1#2#3#            ",
"        4#                5#6#D!` ` ` ` ` i 8!o 7#8#9#          ",
"                          :#;#<#` ` ` ` ` ` ` =#>#?#@#A#        ",
"                          M!B#Y!` F!C#D#E#F#G#` H#I#J#K#L#M#    ",
"                          N#O#P#G#I#Q#R#S#T#1!U#` F!V#W#X#Y#Z#  ",
"        [#]#^#            | _#`#a#b#c#d#e#f#g#h#i#` ` j#k#l#m#  ",
"      n#o#p#q#r#          s#t#u#v#w#x#y#z#{#|#}#D#` ` ` h ~# $  ",
"    !$#$$$%$&$'$($          # )$            *$+$v F!` ` ,$-$.$  ",
"  0$1$2$P##!3$4$5$6$                        m#7$8$H#` ` v 9$:$  ",
"  ;$<$=$>$` ?$@$A$B$C$D$                      E$F$G$i ` v H$I$  ",
"    J$K$L$U i _ M$N$O$P$Q$R$                  S$T$U$H#` V$7#W$  ",
"      X$Y$Z$[$i i ]$^ ^$_$`$!$                  a$b$c$d!d$e$f$  ",
"        g$h$i$j$k$l$>#m$$!n$7$o$p$              A q$r$s$t$u$v$  ",
"          w$x$y$z$H${$|$}$~$ %!%#%$%$             %%[#&%Z ($    ",
"            '%0$(%)%*%+%,%-%.%0%1%2%3%v$                        ",
"                            4%5%v$6%7%8%+!                      ",
"                                                                "};