/* XPM */ 
static const unsigned char * wire_xpm[] = {
"24 24 254 2",
"  	c None",
"! 	c white",
"# 	c #FAF9FF",
"$ 	c #EBE6FF",
"% 	c #CFC3FF",
"& 	c #C2B3FF",
"' 	c #BDADFF",
"( 	c #B8A7FF",
") 	c #C2B4FF",
"* 	c #D2C8FF",
"+ 	c #F4F2FF",
", 	c #FEFEFF",
"- 	c #FBFAFF",
". 	c #EFEBFF",
"0 	c #C9BCFF",
"1 	c #8D71FF",
"2 	c #5E36FF",
"3 	c #5328FF",
"4 	c #4E22FF",
"5 	c #4C1FFF",
"6 	c #5227FF",
"7 	c #4D20FF",
"8 	c #5F38FF",
"9 	c #A791FF",
": 	c #EEEBFF",
"; 	c #F7F5FF",
"< 	c #FDFCFF",
"= 	c #D0C5FF",
"> 	c #7B5BFF",
"? 	c #4213FF",
"@ 	c #572DFF",
"A 	c #7C5CFF",
"B 	c #5B32FF",
"C 	c #8263FF",
"D 	c #7856FF",
"E 	c #4618FF",
"F 	c #4011FF",
"G 	c #6039FF",
"H 	c #7F5FFF",
"I 	c #AC97FF",
"J 	c #E5DEFF",
"K 	c #FEFDFF",
"L 	c #F9F7FF",
"M 	c #BCACFF",
"N 	c #6742FF",
"O 	c #3D0DFF",
"P 	c #3908FF",
"Q 	c #491CFF",
"R 	c #6641FF",
"S 	c #4F23FF",
"T 	c #4517FF",
"U 	c #6640FF",
"V 	c #653EFF",
"W 	c #4416FF",
"X 	c #613AFF",
"Y 	c #5429FF",
"Z 	c #977DFF",
"[ 	c #F3F0FF",
"] 	c #E8E2FF",
"^ 	c #7A59FF",
"_ 	c #3E0EFF",
"` 	c #3806FF",
"a 	c #3C0CFF",
"b 	c #3705FF",
"c 	c #653FFF",
"d 	c #4B1FFF",
"e 	c #3C0BFF",
"f 	c #4719FF",
"g 	c #3A09FF",
"h 	c #552BFF",
"i 	c #B09CFF",
"j 	c #F7F4FF",
"k 	c #F2EEFF",
"l 	c #9176FF",
"m 	c #471AFF",
"n 	c #3A08FF",
"o 	c #8668FF",
"p 	c #886BFF",
"q 	c #4E21FF",
"r 	c #987FFF",
"s 	c #D3C8FF",
"t 	c #5D35FF",
"u 	c #AB96FF",
"v 	c #C4B5FF",
"w 	c #7D5DFF",
"x 	c #5C34FF",
"y 	c #A28BFF",
"z 	c #8669FF",
"{ 	c #3907FF",
"| 	c #FCFBFF",
"} 	c #CABDFF",
"~ 	c #582EFF",
" !	c #3503FF",
"!!	c #3B0AFF",
"#!	c #B29FFF",
"$!	c #A58FFF",
"%!	c #9C84FF",
"&!	c #D7CDFF",
"'!	c #7C5BFF",
"(!	c #AD99FF",
")!	c #D1C6FF",
"*!	c #BBAAFF",
"+!	c #BFAFFF",
",!	c #552AFF",
"-!	c #5125FF",
".!	c #947AFF",
"0!	c #F4F1FF",
"1!	c #F2EFFF",
"2!	c #957BFF",
"3!	c #4314FF",
"4!	c #3300FF",
"5!	c #3604FF",
"6!	c #5A31FF",
"7!	c #6741FF",
"8!	c #4A1DFF",
"9!	c #3F10FF",
":!	c #6038FF",
";!	c #4212FF",
"<!	c #6139FF",
"=!	c #DAD1FF",
">!	c #EEEAFF",
"?!	c #7756FF",
"@!	c #4214FF",
"A!	c #623BFF",
"B!	c #7B5AFF",
"C!	c #957AFF",
"D!	c #4C20FF",
"E!	c #6E4AFF",
"F!	c #4010FF",
"G!	c #5F37FF",
"H!	c #6B46FF",
"I!	c #4D21FF",
"J!	c #B19EFF",
"K!	c #F6F4FF",
"L!	c #EAE5FF",
"M!	c #643EFF",
"N!	c #7654FF",
"O!	c #724FFF",
"P!	c #4E23FF",
"Q!	c #A994FF",
"R!	c #8060FF",
"S!	c #B9A7FF",
"T!	c #E9E4FF",
"U!	c #8465FF",
"V!	c #623CFF",
"W!	c #A792FF",
"X!	c #562CFF",
"Y!	c #C5B6FF",
"Z!	c #886AFF",
"[!	c #876AFF",
"]!	c #896CFF",
"^!	c #F0EDFF",
"_!	c #D9CFFF",
"`!	c #5930FF",
"a!	c #8E72FF",
"b!	c #7857FF",
"c!	c #B7A5FF",
"d!	c #B3A0FF",
"e!	c #E1DAFF",
"f!	c #8061FF",
"g!	c #B5A3FF",
"h!	c #E2DBFF",
"i!	c #AA95FF",
"j!	c #967CFF",
"k!	c #9A81FF",
"l!	c #5931FF",
"m!	c #EBE7FF",
"n!	c #C7B9FF",
"o!	c #5024FF",
"p!	c #5E35FF",
"q!	c #481AFF",
"r!	c #6C47FF",
"s!	c #6943FF",
"t!	c #6944FF",
"u!	c #572EFF",
"v!	c #7553FF",
"w!	c #7A5AFF",
"x!	c #CCBFFF",
"y!	c #481BFF",
"z!	c #6C48FF",
"{!	c #6A45FF",
"|!	c #4617FF",
"}!	c #5D34FF",
"~!	c #7E5EFF",
" #	c #DFD7FF",
"!#	c #8567FF",
"##	c #4F24FF",
"$#	c #9074FF",
"%#	c #EFECFF",
"&#	c #5025FF",
"'#	c #542AFF",
"(#	c #9E86FF",
")#	c #D5CBFF",
"*#	c #D6CCFF",
"+#	c #9B83FF",
",#	c #7958FF",
"-#	c #AD9AFF",
".#	c #491BFF",
"0#	c #3603FF",
"1#	c #4315FF",
"2#	c #633CFF",
"3#	c #7452FF",
"4#	c #4415FF",
"5#	c #643DFF",
"6#	c #7552FF",
"7#	c #3F0FFF",
"8#	c #5C33FF",
"9#	c #DBD2FF",
":#	c #FDFDFF",
";#	c #E0D8FF",
"<#	c #7755FF",
"=#	c #5126FF",
">#	c #4516FF",
"?#	c #4111FF",
"@#	c #F1EEFF",
"A#	c #8769FF",
"B#	c #9379FF",
"C#	c #9D84FF",
"D#	c #7E5DFF",
"E#	c #B09DFF",
"F#	c #997FFF",
"G#	c #CDC1FF",
"H#	c #F9F8FF",
"I#	c #C6B8FF",
"J#	c #4A1EFF",
"K#	c #4B1EFF",
"L#	c #7D5EFF",
"M#	c #6D49FF",
"N#	c #5329FF",
"O#	c #A48DFF",
"P#	c #F5F3FF",
"Q#	c #3402FF",
"R#	c #3301FF",
"S#	c #4A1CFF",
"T#	c #3A0AFF",
"U#	c #582FFF",
"V#	c #EDE9FF",
"W#	c #714EFF",
"X#	c #AF9BFF",
"Y#	c #9277FF",
"Z#	c #DBD3FF",
"[#	c #A38DFF",
"]#	c #6E4BFF",
"^#	c #8C70FF",
"_#	c #CEC2FF",
"`#	c #E9E3FF",
"a#	c #C5B7FF",
"b#	c #A088FF",
"c#	c #9F88FF",
"d#	c #C1B1FF",
"e#	c #E7E2FF",
"f#	c #FCFCFF",
"g#	c #F5F2FF",
"h#	c #ECE8FF",
"! ! ! ! ! ! # $ % & ' ( ' & ) * + ! ! ! ! ! ! ! ",
"! ! ! , - . 0 1 2 3 4 5 3 6 7 8 9 : ; < ! ! ! ! ",
"! ! ! ; = > 3 ? @ A B 6 C D E F G H I J K ! ! ! ",
"! ! L M N O F P Q R S T U V W Q X T Y Z [ , ! ! ",
"! K ] ^ _ ` a b S R 7 ? 2 c d e f g b h i j ! ! ",
"! k l m n o p q r s ^ t u v w x y z _ { U s | ! ",
"# } ~  !!!#!$!3 %!&!'!2 (!)!1 2 *!+!,!{ -!.!0!! ",
"1!2!3!4!5!X 6!O ,!7!8!F 6!7!6 9!:!7!;!P Q <!=!| ",
">!?!Q @!g A!6 8!B!C!2 D!'!2!E!F!G!H!I!_ 3 D!J!K!",
"L!M!N!O!P!Q!R!X S!T!U!V!*!L!W!X!.!Y!Z!6 [!I!]!^!",
"_!`!a!b!x c!o G d!e!f!G g!h!i!x l * j!@ k!l!'!m!",
"n!o!p!D!q!r!h E s!'!3 T t!A U T u!v!x ? :!I!w!] ",
"x!o!o!Q y!z!X!E s!A Y E {!A 7!|!~ N!}!? t T ~!L!",
" #t c c 6!c!!#G d!e!f!G g!h!Q!x l * j!X!l ##$#%#",
">!w!&#'#y!(#> t i!)#B!t I *#+#X!l *!f!I!,#&#d!j ",
"K!-#.#4!0#u!I!1#2#3#o!4#5#6#B 7#8#A!T !!? B 9#| ",
":#;#p! !b {!2 _ G!<#=#>#U v!6!F!c v!8!g ?#o 1!! ",
"! @#A#F!P B#]!d C#=!D#G!E#)#$#o!F#i!Y P <!G#- ! ",
"! H#I#M!!!J#K#!!:!L#X!m M#,#u!a =#N#9!3 O#P#! ! ",
"! , K!c!7!a Q#R#f 2 S#F!@ '#_ 5!T#!!U#%!V#K ! ! ",
"! ! ! ; x!W#q!!!H!X#v!6!k!Y#o!5!? U d!0!, ! ! ! ",
"! ! ! , # Z#[#]#@ 3 5 .###S o!:!^#_#; , ! ! ! ! ",
"! ! ! ! ! | K!`#a#9 b#c#b#[#d#e#[ # ! ! ! ! ! ! ",
"! ! ! ! ! ! ! f#g#>!h#$ h#V#1!H#! ! ! ! ! ! ! ! "};