/* XPM */ 
static const char * models_pack_xpm[] = {
"32 32 238 2",
"  	c None",
"! 	c black",
"# 	c #EBE6FF",
"$ 	c #E8E3FF",
"% 	c #E8E2FF",
"& 	c #EAE4FF",
"' 	c #F1EEFF",
"( 	c #FDFCFF",
") 	c #B4A1FF",
"* 	c #6640FF",
"+ 	c #5126FF",
", 	c #5025FF",
"- 	c #5125FF",
". 	c #5226FF",
"0 	c #5C34FF",
"1 	c #8F74FF",
"2 	c #EFEBFF",
"3 	c #B29FFF",
"4 	c #5329FF",
"5 	c #3F0FFF",
"6 	c #4415FF",
"7 	c #4416FF",
"8 	c #4516FF",
"9 	c #3604FF",
": 	c #3401FF",
"; 	c #3503FF",
"< 	c #5328FF",
"= 	c #E5DEFF",
"> 	c #B8A7FF",
"? 	c #552BFF",
"@ 	c #8162FF",
"A 	c #D2C7FF",
"B 	c #D9D0FF",
"C 	c #DAD1FF",
"D 	c #DAD0FF",
"E 	c #9D84FF",
"F 	c #4D21FF",
"G 	c #3806FF",
"H 	c #3300FF",
"I 	c #491BFF",
"J 	c #E3DCFF",
"K 	c #BDADFF",
"L 	c #5A31FF",
"M 	c #4314FF",
"N 	c #7E5EFF",
"O 	c #DFD7FF",
"P 	c #C5B7FF",
"Q 	c #653FFF",
"R 	c #4111FF",
"S 	c #5930FF",
"T 	c #3C0BFF",
"U 	c #491CFF",
"V 	c #AE9AFF",
"W 	c #4213FF",
"X 	c #7856FF",
"Y 	c #DBD1FF",
"Z 	c #CABDFF",
"[ 	c #6944FF",
"] 	c #4011FF",
"^ 	c #6F4BFF",
"_ 	c #BCABFF",
"` 	c #5024FF",
"a 	c #B09CFF",
"b 	c #552AFF",
"c 	c #7A59FF",
"d 	c #D6CCFF",
"e 	c #CEC2FF",
"f 	c #4010FF",
"g 	c #6B46FF",
"h 	c #CBBEFF",
"i 	c #E9E4FF",
"j 	c #562BFF",
"k 	c #B6A3FF",
"l 	c #572EFF",
"m 	c #8364FF",
"n 	c #DBD2FF",
"o 	c #C0B1FF",
"p 	c #6C48FF",
"q 	c #6540FF",
"r 	c #C6B8FF",
"s 	c #BBAAFF",
"t 	c #7B5AFF",
"u 	c #D7CDFF",
"v 	c #BFB0FF",
"w 	c #6843FF",
"x 	c #C2B3FF",
"y 	c #562CFF",
"z 	c #DCD3FF",
"{ 	c #643EFF",
"| 	c #3705FF",
"} 	c #5227FF",
"~ 	c #714DFF",
" !	c #7351FF",
"!!	c #7350FF",
"#!	c #582FFF",
"$!	c #3D0CFF",
"%!	c #7451FF",
"&!	c #C7B9FF",
"'!	c #E1D9FF",
"(!	c #D1C6FF",
")!	c #4618FF",
"*!	c #3603FF",
"+!	c #B19EFF",
",!	c #E0D8FF",
"-!	c #DCD4FF",
".!	c #471AFF",
"0!	c #A994FF",
"1!	c #B3A0FF",
"2!	c #5F37FF",
"3!	c #E2DAFF",
"4!	c #E4DDFF",
"5!	c #7958FF",
"6!	c #481BFF",
"7!	c #C3B3FF",
"8!	c #D3D3D3",
"9!	c #E1E1E4",
":!	c #9C9C9C",
";!	c #BFBFC2",
"<!	c #4B21F4",
"=!	c #B8B4C9",
">!	c #D5D5D5",
"?!	c #CBCBCB",
"@!	c #D9D9D9",
"A!	c #D0D0D0",
"B!	c #CACACA",
"C!	c #E1E1E1",
"D!	c #C6C6C6",
"E!	c #C8C8C8",
"F!	c #E4E4E4",
"G!	c #EDEDED",
"H!	c #CFCFCF",
"I!	c #CDCDCD",
"J!	c #787878",
"K!	c #B3B2B6",
"L!	c #370DE0",
"M!	c #575367",
"N!	c #9B9B9B",
"O!	c #929292",
"P!	c #7C7C7C",
"Q!	c #8F8F8F",
"R!	c #9D9D9D",
"S!	c #D4D4D4",
"T!	c #949494",
"U!	c #8B8B8B",
"V!	c #A5A5A5",
"W!	c #E7E7E7",
"X!	c #B8B8B8",
"Y!	c #9F9F9F",
"Z!	c #555555",
"[!	c #A8A8AB",
"]!	c #2C02D5",
"^!	c #2F2B3F",
"_!	c #B6B6B6",
"`!	c #AFAFAF",
"a!	c #545454",
"b!	c #B1B1B1",
"c!	c #A7A7A7",
"d!	c #676767",
"e!	c #919191",
"f!	c #6D6D6D",
"g!	c #CCCCCC",
"h!	c #808080",
"i!	c #A4A4A4",
"j!	c #CECECE",
"k!	c #5F5F5F",
"l!	c #A5A5A8",
"m!	c #2B00D4",
"n!	c #343044",
"o!	c #797979",
"p!	c #C7C7C7",
"q!	c #595959",
"r!	c #6A6A6A",
"s!	c #878787",
"t!	c #E3E3E3",
"u!	c #868686",
"v!	c #696969",
"w!	c #ABABAB",
"x!	c #838383",
"y!	c #B0AFB2",
"z!	c #ECE7FF",
"{!	c #5E5E5E",
"|!	c #6C6C6C",
"}!	c #D8D8D8",
"~!	c #727272",
" #	c #A0A0A0",
"!#	c #D6D6D6",
"##	c #767676",
"$#	c #AAA9AC",
"%#	c #BFAFFF",
"&#	c #4B1EFF",
"'#	c #4F23FF",
"(#	c #2E04D7",
")#	c #433F53",
"*#	c #848484",
"+#	c #757575",
",#	c #717171",
"-#	c #AEAEAE",
".#	c #818181",
"0#	c #B4B4B4",
"1#	c #A9A9A9",
"2#	c #A8A8A8",
"3#	c #C3C3C3",
"4#	c #643DFF",
"5#	c #4112FF",
"6#	c #7D5DFF",
"7#	c #ECE8FF",
"8#	c #3E14E8",
"9#	c #8A869A",
":#	c #B7B7B7",
";#	c #B0B0B0",
"<#	c #A6A6A6",
"=#	c #969696",
">#	c #8E8E8E",
"?#	c #D2D1D4",
"@#	c #633CFF",
"A#	c #6D49FF",
"B#	c #552BFE",
"C#	c #5B32FF",
"D#	c #BAA9FF",
"E#	c #C2B4FF",
"F#	c #5E37FF",
"G#	c #7755FF",
"H#	c #3704FF",
"I#	c #8D72FF",
"J#	c #724FFF",
"K#	c #3301FF",
"L#	c #CCC0FF",
"M#	c #D8CFFF",
"N#	c #6D48FF",
"O#	c #6C47FF",
"P#	c #CDC1FF",
"Q#	c #4B1FFF",
"R#	c #3907FF",
"S#	c #7654FF",
"T#	c #EAE5FF",
"U#	c #714EFF",
"V#	c #FCFCFF",
"W#	c #E7E2FF",
"                  # $ % $ % % % $ % % % $ % % % $ % % % $ & ' ( ",
"                ) * + , - , - , - , - , - , - , - , - , . 0 1 2 ",
"              3 4 5 6 7 8 7 8 7 8 7 8 7 8 7 8 7 8 6 5 9 : ; < = ",
"            > ? 7 @ A B C D C B C D C B C D C B D A E F G H I J ",
"          K L M N O                               P Q R S T U J ",
"        V 0 W X Y                               Z [ ] ^ _ ` I J ",
"      a b M c d                               e ^ f g h i j U J ",
"    k l 6 m n                               o p R q r   2 j I J ",
"  s 0 f t u                               v w 5 w x     2 y U J ",
"z { | | } ~  !!!!!!! !!!!!!! !!!!!!! !!!!!#!$!%!&!      2 ? I '!",
"(!)!: ; *!; 9 ; *!; 9 ; *!; 9 ; *!; 9 ; *!: G +!        2 j U ,!",
"-!.!U 0!) ) ) ) ) ) ) ) ) ) ) ) ) ) ) ) 1!2!G x         2 j I 3!",
"4!I y                                   ( 5!G x         2 y U J ",
"J 6!y                                   ( 5!G x         2 ? I J ",
"J I y                                   ( 5!G 7!        2 j U J ",
"J 6!y                                 8!9!5!G x         2 j I J ",
"4!I y                                 :!;!5!G x         2 y U J ",
"J 6!<!=!>!?!@!A!B!C!  C!D!E!F!  G!H!I!J!K!5!G x         2 ? I J ",
"J I L!M!N!O!P!Q!Q!R!S!T!T!U!V!W!X!U!Y!Z![!5!G 7!        2 j U J ",
"J 6!]!^!_!`!a!b!c!d!e!f!g!b!h!i!:!V!j!k!l!5!G x         2 j I J ",
"4!I m!n!  8!o!  p!q!r!s!  t!u!v!w!C!  x!y!5!G x         z!? U J ",
"J 6!m!n!  8!o!  p!{!|!J!  }!P!~! #!#  ##$#5!G x         %#&#'#4!",
"J I (#)#  !#*#  ?!+#U!,#A!-#.#0#1#2#3#{!$#5!G 7!      P 4#5#6#7#",
"J 6!8#9#    :#  C!;#8!X!2#<#p!  A! #=#>#?#5!G x     > @#R A#A   ",
"4!I B#                                    5!G x   K C#W ^ e     ",
"J 6!y                                     5!G D#E#F#W G#C       ",
"J I y                                     5!H#I#{ 5#J#u         ",
"J 6!y                                     5!K#f R p A           ",
"4!I ` L#C C C D C C C D C C C D C C C D M#N#: 5 O#P#            ",
"4!Q#H#M 7 6 8 6 7 6 8 6 7 6 8 6 7 6 8 6 7 R#| S#d               ",
"T#U#< - - , + - - , + - - , + - - , + - - - C#P                 ",
"V#7#% W#% % % W#% % % W#% % % W#% % % W#% % i                   "};