/* XPM */ 
static const char * model_icon_xpm[] = {
"32 32 251 2",
"  	c None",
"! 	c black",
"# 	c #F6F3FF",
"$ 	c #EDE8FF",
"% 	c #E5DFFF",
"& 	c #D7CDFF",
"' 	c #A089FF",
"( 	c #7654FF",
") 	c #8B6FFF",
"* 	c #AC97FF",
"+ 	c #7E5DFF",
", 	c #7552FF",
"- 	c #7755FF",
". 	c #8162FF",
"0 	c #A18AFF",
"1 	c #D3C8FF",
"2 	c #C4B5FF",
"3 	c #9378FF",
"4 	c #6943FF",
"5 	c #552BFF",
"6 	c #5228FF",
"7 	c #6540FF",
"8 	c #DED6FF",
"9 	c #E5DEFF",
": 	c #724FFF",
"; 	c #4F24FF",
"< 	c #4719FF",
"= 	c #7553FF",
"> 	c #9C84FF",
"? 	c #A58FFF",
"@ 	c #957CFF",
"A 	c #886BFF",
"B 	c #8264FF",
"C 	c #B7A6FF",
"D 	c #E2DBFF",
"E 	c #DFD8FF",
"F 	c #B6A4FF",
"G 	c #9176FF",
"H 	c #8263FF",
"I 	c #7D5DFF",
"J 	c #5D35FF",
"K 	c #9980FF",
"L 	c #7655FF",
"M 	c #BCACFF",
"N 	c #7250FF",
"O 	c #947AFF",
"P 	c #896CFF",
"Q 	c #BAA9FF",
"R 	c #EAE5FF",
"S 	c #E6E0FF",
"T 	c #C5B8FF",
"U 	c #9B83FF",
"V 	c #8465FF",
"W 	c #8567FF",
"X 	c #957AFF",
"Y 	c #AD98FF",
"Z 	c #9277FF",
"[ 	c #9D85FF",
"] 	c #9379FF",
"^ 	c #A38DFF",
"_ 	c #987FFF",
"` 	c #8E72FF",
"a 	c #E3DDFF",
"b 	c #CFC3FF",
"c 	c #8C70FF",
"d 	c #7B5BFF",
"e 	c #A893FF",
"f 	c #DCD4FF",
"g 	c #B09DFF",
"h 	c #572DFF",
"i 	c #6A45FF",
"j 	c #8262FF",
"k 	c #AC98FF",
"l 	c #C7BAFF",
"m 	c #BEAEFF",
"n 	c #8769FF",
"o 	c #B9A9FF",
"p 	c #BFAFFF",
"q 	c #E9E3FF",
"r 	c #8466FF",
"s 	c #5B33FF",
"t 	c #9075FF",
"u 	c #D0C5FF",
"v 	c #A994FF",
"w 	c #A48EFF",
"x 	c #D1C6FF",
"y 	c #C4B6FF",
"z 	c #6F4CFF",
"{ 	c #E0D9FF",
"| 	c #D9D0FF",
"} 	c #704DFF",
"~ 	c #CBBFFF",
" !	c #8161FF",
"!!	c #714EFF",
"#!	c #6E4BFF",
"$!	c #7E5FFF",
"%!	c #BBABFF",
"&!	c #CDC0FF",
"'!	c #7958FF",
"(!	c #7F5FFF",
")!	c #B4A2FF",
"*!	c #6843FF",
"+!	c #7857FF",
",!	c #7B5AFF",
"-!	c #AB96FF",
".!	c #EEEAFF",
"0!	c #7C5BFF",
"1!	c #A28BFF",
"2!	c #C9BBFF",
"3!	c #B8A6FF",
"4!	c #9B82FF",
"5!	c #714DFF",
"6!	c #9479FF",
"7!	c #8061FF",
"8!	c #5A31FF",
"9!	c #6944FF",
":!	c #BFB0FF",
";!	c #E7E1FF",
"<!	c #BCABFF",
"=!	c #D8CFFF",
">!	c #EFEBFF",
"?!	c #A791FF",
"@!	c #D0C4FF",
"A!	c #6B47FF",
"B!	c #CDC1FF",
"C!	c #8D71FF",
"D!	c #E8E2FF",
"E!	c #B3A0FF",
"F!	c #643FFF",
"G!	c #9F87FF",
"H!	c #CCBFFF",
"I!	c #E3DCFF",
"J!	c #D4C9FF",
"K!	c #8568FF",
"L!	c #6842FF",
"M!	c #DCD3FF",
"N!	c #F4F2FF",
"O!	c #A590FF",
"P!	c #8467FF",
"Q!	c #D4CAFF",
"R!	c #7554FF",
"S!	c #B6A5FF",
"T!	c #D1C5FF",
"U!	c #C1B2FF",
"V!	c #CEC1FF",
"W!	c #E0D8FF",
"X!	c #DFD7FF",
"Y!	c #AF9CFF",
"Z!	c #D9CFFF",
"[!	c #ECE7FF",
"]!	c #ECE8FF",
"^!	c #F0ECFF",
"_!	c #C6B8FF",
"`!	c #6D49FF",
"a!	c #D3C9FF",
"b!	c #CBBEFF",
"c!	c #AE9AFF",
"d!	c #B8A7FF",
"e!	c #7452FF",
"f!	c #EBE7FF",
"g!	c #E4DEFF",
"h!	c #C2B3FF",
"i!	c #F1EDFF",
"j!	c #9177FF",
"k!	c #A792FF",
"l!	c #7F60FF",
"m!	c #6B46FF",
"n!	c #A088FF",
"o!	c #5A32FF",
"p!	c #653EFF",
"q!	c #6742FF",
"r!	c #7756FF",
"s!	c #8365FF",
"t!	c #7453FF",
"u!	c #DBD2FF",
"v!	c #D5CAFF",
"w!	c #653FFF",
"x!	c #6C48FF",
"y!	c #7350FF",
"z!	c #9074FF",
"{!	c #C8BBFF",
"|!	c #C9BCFF",
"}!	c #E7E2FF",
"~!	c #D3C7FF",
" #	c #704CFF",
"!#	c #D5CBFF",
"##	c #D6CCFF",
"$#	c #CEC2FF",
"%#	c #E1DAFF",
"&#	c #DDD4FF",
"'#	c #C5B6FF",
"(#	c #9981FF",
")#	c #AA95FF",
"*#	c #F6F4FF",
"+#	c #C6B9FF",
",#	c #A58EFF",
"-#	c #FBFAFF",
".#	c #A690FF",
"0#	c #E6DFFF",
"1#	c #EBE6FF",
"2#	c #A18BFF",
"3#	c #B9A8FF",
"4#	c #AD99FF",
"5#	c #B29FFF",
"6#	c #D2C6FF",
"7#	c #DAD1FF",
"8#	c #DDD5FF",
"9#	c #8B6EFF",
":#	c #C3B4FF",
";#	c #C0B1FF",
"<#	c #6038FF",
"=#	c #5C34FF",
">#	c #6139FF",
"?#	c #6039FF",
"@#	c #8060FF",
"A#	c #6F4BFF",
"B#	c #BAAAFF",
"C#	c #6E4AFF",
"D#	c #8364FF",
"E#	c #E2DAFF",
"F#	c #DAD0FF",
"G#	c #C1B3FF",
"H#	c #8668FF",
"I#	c #B09EFF",
"J#	c #9D86FF",
"K#	c #6D48FF",
"L#	c #DBD3FF",
"M#	c #7E5EFF",
"N#	c #967CFF",
"O#	c #AA94FF",
"P#	c #6C47FF",
"Q#	c #E1D9FF",
"R#	c #BBAAFF",
"S#	c #EAE4FF",
"T#	c #C5B7FF",
"U#	c #F4F1FF",
"V#	c #F0EDFF",
"W#	c #5126FF",
"X#	c #7C5CFF",
"Y#	c #CFC4FF",
"Z#	c #9276FF",
"[#	c #4C20FF",
"]#	c #633DFF",
"^#	c #BDADFF",
"_#	c #BEADFF",
"`#	c #582FFF",
"a#	c #977EFF",
"b#	c #BDACFF",
"c#	c #633CFF",
"d#	c #6741FF",
"e#	c #F2EFFF",
"                                                  # $ %         ",
"                                                & ' ( )         ",
"          * + , ( ( - . 0 1                 2 3 4 5 6 7 8       ",
"        9 : ; < = > ? @ A B 3 C D     E F G H I J J K L C       ",
"        M N O B P Q R S T U V W X * Y Z W A [ ] = ^ 8 _ `       ",
"        ) @ a b c d e f     8 g : h i j k l m n G %   o : S     ",
"      f : p     q r s t u       v : w x y ' : z {     | } ~     ",
"      Y  !f       H !!#!$!%!  &!'!(!)!) *!+!,!}       a P -!    ",
"    .!0!1!      2!( 3!| 4!5!6!7!5 8!9!` :!;!<!L =!    >!?!.     ",
"    @!A!B!      G C!8   D!E!+!6 F!G!H!I!    J!K!Q       2!L!M!  ",
"  N!O!P!I!    Q!R!S!        T!U!V!          W!O 1!      X!,!%!  ",
"  q +!Y!      [ W Z!                        [!w n       ]!4!G ^!",
"  _!`!a!  [!b!!!c!                            d!e!f!  g!h!H 9!R ",
"i!j!I h!2 k!l!m!T!                            H!z g Q n!B o!p!R ",
"D q!r!s!} t!( H u!                            v!} w!x!(!G y!z!>!",
"{!5 #!_ |!}!B!V ~!                            B! #X !#.!!#N 3!i!",
"##`!$#.!    % d H!                            Y!r!%#    {!L!&#  ",
"g!*!8         y!'#                          f ) (#      )#W .!  ",
"R } J!        . Q                           2 L ~     D r -!*#  ",
"$ (!+#        3 Y!.!                      [!,#r .!    $#m!T!-#  ",
"^!G F         .#w 0#                      1 r )#      )!- 1#    ",
"  2#k!        3#_ M!                      F = ##    S 3 [ N!    ",
"  4#[ 1#      M H 5#6#x 6#x v!7#8#&#8#&#B!Z 9#      !#y!:#      ",
"  ;#c %       K <#=#>#<#>#?#9!+!.  !. @#A#x!B#    .!E!C#S       ",
"  b!D#I!    h!N E!X!D E#D E#F#|!h!G#h!%!H#y!%   R I#A#J##       ",
"  I!K#L#  ##M#1!q                     7#t c   { N#e!O#S         ",
"  f!P#1 Q#P 9#=!                      H!W 4#V!n (!R#S#          ",
"  .!0!3#[ M#'#                        c! #G!s!A T#U#            ",
"  V#H#7!( )!                        q ` W#X#` Y#                ",
"    Z#[#]#v ^#^#_#^#_#^#_#^#_#^#_#^#w 9!`#a#X!                  ",
"    b#5!c#d#L!L!L!L!L!L!L!L!L!L!L!L!d#: Y e#                    ",
"        >!.!>!.!>!.!>!.!>!.!>!.!>!.!>!^!                        "};